<svg width="280" height="35" viewBox="0 0 280 35" fill="none" xmlns="http://www.w3.org/2000/svg">
<path fill-rule="evenodd" clip-rule="evenodd" d="M280 35H125.872V34H280V35Z" fill="#43435B"/>
<path d="M0 34.5V0H76.208L128.44 35L0 34.5Z" fill="#43435B"/>
<path d="M61.7149 23.9998V14.5118H58.3389V12.7998H66.9469V14.5118H63.5869V23.9998H61.7149Z" fill="#FDFCFA"/>
<path d="M52.6082 24.2078C51.2109 24.2078 50.1442 23.8398 49.4082 23.1038C48.6722 22.3571 48.3042 21.2425 48.3042 19.7598V12.7998H50.1762V19.6638C50.1762 20.6238 50.3895 21.3225 50.8162 21.7598C51.2535 22.1865 51.8509 22.3998 52.6082 22.3998C53.3655 22.3998 53.9575 22.1865 54.3842 21.7598C54.8109 21.3225 55.0242 20.6238 55.0242 19.6638V12.7998H56.8802V19.7598C56.8802 21.2425 56.5175 22.3571 55.7922 23.1038C55.0669 23.8398 54.0055 24.2078 52.6082 24.2078Z" fill="#FDFCFA"/>
<path d="M41.5273 24.2562C40.514 24.2562 39.6073 24.0162 38.8073 23.5362C38.018 23.0562 37.3993 22.3789 36.9513 21.5042C36.5033 20.6189 36.2793 19.5842 36.2793 18.4002C36.2793 17.2055 36.5033 16.1709 36.9513 15.2962C37.3993 14.4109 38.018 13.7282 38.8073 13.2482C39.6073 12.7575 40.514 12.5122 41.5273 12.5122C42.5406 12.5122 43.4366 12.7575 44.2153 13.2482C45.0046 13.7282 45.6233 14.4109 46.0713 15.2962C46.53 16.1709 46.7593 17.2055 46.7593 18.4002C46.7593 19.5842 46.53 20.6189 46.0713 21.5042C45.6233 22.3789 45.0046 23.0562 44.2153 23.5362C43.4366 24.0162 42.5406 24.2562 41.5273 24.2562ZM41.5273 22.4642C42.1993 22.4642 42.7806 22.2989 43.2713 21.9682C43.762 21.6269 44.1406 21.1522 44.4073 20.5442C44.6846 19.9255 44.8233 19.2109 44.8233 18.4002C44.8233 17.5789 44.6846 16.8642 44.4073 16.2562C44.1406 15.6375 43.762 15.1629 43.2713 14.8322C42.7806 14.4909 42.1993 14.3202 41.5273 14.3202C40.866 14.3202 40.2846 14.4909 39.7833 14.8322C39.282 15.1629 38.8926 15.6375 38.6153 16.2562C38.3486 16.8642 38.2153 17.5789 38.2153 18.4002C38.2153 19.2109 38.3486 19.9255 38.6153 20.5442C38.8926 21.1522 39.282 21.6269 39.7833 21.9682C40.2846 22.2989 40.866 22.4642 41.5273 22.4642Z" fill="#FDFCFA"/>
<path d="M26.6362 23.9998V12.7998H31.3402C32.2576 12.7998 33.0149 13.0451 33.6122 13.5358C34.2096 14.0158 34.5082 14.7145 34.5082 15.6318C34.5082 16.2825 34.3589 16.8265 34.0602 17.2638C33.7722 17.6905 33.4042 17.9785 32.9562 18.1278C33.5322 18.2345 34.0122 18.5491 34.3962 19.0718C34.7909 19.5838 34.9882 20.2185 34.9882 20.9758C34.9882 22.0105 34.6789 22.7731 34.0602 23.2638C33.4416 23.7545 32.5936 23.9998 31.5162 23.9998H26.6362ZM28.4762 22.2878H31.2602C31.8469 22.2878 32.2789 22.1651 32.5562 21.9198C32.8442 21.6638 32.9882 21.2638 32.9882 20.7198C32.9882 20.1971 32.8229 19.8078 32.4922 19.5518C32.1616 19.2851 31.7509 19.1518 31.2602 19.1518H28.4762V22.2878ZM28.4762 17.4238H31.0202C31.5109 17.4238 31.8789 17.2905 32.1242 17.0238C32.3696 16.7571 32.4922 16.3891 32.4922 15.9198C32.4922 15.4505 32.3589 15.0985 32.0922 14.8638C31.8362 14.6291 31.4682 14.5118 30.9882 14.5118H28.4762V17.4238Z" fill="#FDFCFA"/>
<path d="M15.1602 23.9998L19.4322 12.7998H21.0642L25.3362 23.9998H23.2402L22.3762 21.5358H18.0722L17.2082 23.9998H15.1602ZM18.6802 19.8238H21.7842L20.2482 15.4558L18.6802 19.8238Z" fill="#FDFCFA"/>
</svg>
