<svg width="280" height="35" viewBox="0 0 280 35" fill="none" xmlns="http://www.w3.org/2000/svg">
<path fill-rule="evenodd" clip-rule="evenodd" d="M280 35H125.872V34H280V35Z" fill="#43435B"/>
<path d="M0 34.5V0H76.208L128.44 35L0 34.5Z" fill="#43435B"/>
<path d="M84.5331 24V19.248L80.7731 12.8H82.9171L85.4771 17.232L88.0051 12.8H90.1811L86.4051 19.248V24H84.5331Z" fill="#FDFCFA"/>
<path d="M70.3391 24V12.8H72.1791L77.4591 20.752V12.8H79.3311V24H77.5551L72.1791 15.824V24H70.3391Z" fill="#FDFCFA"/>
<path d="M58.8631 24L63.1351 12.8H64.7671L69.0391 24H66.9431L66.0791 21.536H61.7751L60.9111 24H58.8631ZM62.3831 19.824H65.4871L63.9511 15.456L62.3831 19.824Z" fill="#FDFCFA"/>
<path d="M50.8704 24V12.8H55.9904C57.0357 12.8 57.8624 13.0454 58.4704 13.536C59.089 14.0267 59.3984 14.8534 59.3984 16.016C59.3984 17.1787 59.089 18.0107 58.4704 18.512C57.8624 19.0134 57.0357 19.264 55.9904 19.264H52.7104V24H50.8704ZM52.7104 17.536H55.7344C56.2784 17.536 56.6997 17.4187 56.9984 17.184C57.297 16.9494 57.4464 16.56 57.4464 16.016C57.4464 15.4827 57.297 15.0987 56.9984 14.864C56.6997 14.6294 56.2784 14.512 55.7344 14.512H52.7104V17.536Z" fill="#FDFCFA"/>
<path d="M38.511 24V12.8H40.351L43.567 18.176L46.735 12.8H48.607V24H46.719V16.016L44.095 20.576H43.007L40.367 16.016V24H38.511Z" fill="#FDFCFA"/>
<path d="M31.574 24.256C30.5607 24.256 29.654 24.016 28.854 23.536C28.0647 23.056 27.446 22.3786 26.998 21.504C26.55 20.6186 26.326 19.584 26.326 18.4C26.326 17.2053 26.55 16.1706 26.998 15.296C27.446 14.4106 28.0647 13.728 28.854 13.248C29.654 12.7573 30.5607 12.512 31.574 12.512C32.5873 12.512 33.4833 12.7573 34.262 13.248C35.0513 13.728 35.67 14.4106 36.118 15.296C36.5767 16.1706 36.806 17.2053 36.806 18.4C36.806 19.584 36.5767 20.6186 36.118 21.504C35.67 22.3786 35.0513 23.056 34.262 23.536C33.4833 24.016 32.5873 24.256 31.574 24.256ZM31.574 22.464C32.246 22.464 32.8273 22.2986 33.318 21.968C33.8087 21.6266 34.1873 21.152 34.454 20.544C34.7313 19.9253 34.87 19.2106 34.87 18.4C34.87 17.5786 34.7313 16.864 34.454 16.256C34.1873 15.6373 33.8087 15.1626 33.318 14.832C32.8273 14.4906 32.246 14.32 31.574 14.32C30.9127 14.32 30.3313 14.4906 29.83 14.832C29.3287 15.1626 28.9393 15.6373 28.662 16.256C28.3953 16.864 28.262 17.5786 28.262 18.4C28.262 19.2106 28.3953 19.9253 28.662 20.544C28.9393 21.152 29.3287 21.6266 29.83 21.968C30.3313 22.2986 30.9127 22.464 31.574 22.464Z" fill="#FDFCFA"/>
<path d="M20.824 24.256C19.8107 24.256 18.904 24.016 18.104 23.536C17.3147 23.056 16.696 22.3786 16.248 21.504C15.8 20.6186 15.576 19.584 15.576 18.4C15.576 17.2053 15.8 16.1706 16.248 15.296C16.696 14.4106 17.3147 13.728 18.104 13.248C18.904 12.7573 19.8107 12.512 20.824 12.512C21.7627 12.512 22.6053 12.72 23.352 13.136C24.0987 13.552 24.7013 14.1333 25.16 14.88L23.512 15.84C23.2133 15.36 22.8347 14.9866 22.376 14.72C21.928 14.4533 21.4107 14.32 20.824 14.32C20.1627 14.32 19.5813 14.4906 19.08 14.832C18.5787 15.1626 18.1893 15.6373 17.912 16.256C17.6453 16.864 17.512 17.5786 17.512 18.4C17.512 19.2106 17.6453 19.9253 17.912 20.544C18.1893 21.152 18.5787 21.6266 19.08 21.968C19.5813 22.2986 20.1627 22.464 20.824 22.464C21.4107 22.464 21.928 22.3306 22.376 22.064C22.8347 21.7973 23.2133 21.424 23.512 20.944L25.16 21.904C24.7013 22.64 24.0987 23.216 23.352 23.632C22.6053 24.048 21.7627 24.256 20.824 24.256Z" fill="#FDFCFA"/>
</svg>
