<svg width="280" height="35" viewBox="0 0 280 35" fill="none" xmlns="http://www.w3.org/2000/svg">
<path fill-rule="evenodd" clip-rule="evenodd" d="M280 35H125.872V34H280V35Z" fill="#43435B"/>
<path d="M0 34.5V0H76.208L128.44 35L0 34.5Z" fill="#43435B"/>
<path d="M81.1052 24V14.512H77.7292V12.8H86.3372V14.512H82.9772V24H81.1052Z" fill="#FDFCFA"/>
<path d="M72.3552 24.256C71.3419 24.256 70.4352 24.016 69.6352 23.536C68.8459 23.056 68.2272 22.3786 67.7792 21.504C67.3312 20.6186 67.1072 19.584 67.1072 18.4C67.1072 17.2053 67.3312 16.1706 67.7792 15.296C68.2272 14.4106 68.8459 13.728 69.6352 13.248C70.4352 12.7573 71.3419 12.512 72.3552 12.512C73.2939 12.512 74.1366 12.72 74.8832 13.136C75.6299 13.552 76.2326 14.1333 76.6912 14.88L75.0432 15.84C74.7446 15.36 74.3659 14.9866 73.9072 14.72C73.4592 14.4533 72.9419 14.32 72.3552 14.32C71.6939 14.32 71.1126 14.4906 70.6112 14.832C70.1099 15.1626 69.7206 15.6373 69.4432 16.256C69.1766 16.864 69.0432 17.5786 69.0432 18.4C69.0432 19.2106 69.1766 19.9253 69.4432 20.544C69.7206 21.152 70.1099 21.6266 70.6112 21.968C71.1126 22.2986 71.6939 22.464 72.3552 22.464C72.9419 22.464 73.4592 22.3306 73.9072 22.064C74.3659 21.7973 74.7446 21.424 75.0432 20.944L76.6912 21.904C76.2326 22.64 75.6299 23.216 74.8832 23.632C74.1366 24.048 73.2939 24.256 72.3552 24.256Z" fill="#FDFCFA"/>
<path d="M56.6756 24L60.9476 12.8H62.5796L66.8516 24H64.7556L63.8916 21.536H59.5876L58.7236 24H56.6756ZM60.1956 19.824H63.2996L61.7636 15.456L60.1956 19.824Z" fill="#FDFCFA"/>
<path d="M52.449 24V14.512H49.073V12.8H57.681V14.512H54.321V24H52.449Z" fill="#FDFCFA"/>
<path d="M38.511 24V12.8H40.351L45.631 20.752V12.8H47.503V24H45.727L40.351 15.824V24H38.511Z" fill="#FDFCFA"/>
<path d="M31.574 24.256C30.5607 24.256 29.654 24.016 28.854 23.536C28.0647 23.056 27.446 22.3786 26.998 21.504C26.55 20.6186 26.326 19.584 26.326 18.4C26.326 17.2053 26.55 16.1706 26.998 15.296C27.446 14.4106 28.0647 13.728 28.854 13.248C29.654 12.7573 30.5607 12.512 31.574 12.512C32.5873 12.512 33.4833 12.7573 34.262 13.248C35.0513 13.728 35.67 14.4106 36.118 15.296C36.5767 16.1706 36.806 17.2053 36.806 18.4C36.806 19.584 36.5767 20.6186 36.118 21.504C35.67 22.3786 35.0513 23.056 34.262 23.536C33.4833 24.016 32.5873 24.256 31.574 24.256ZM31.574 22.464C32.246 22.464 32.8273 22.2986 33.318 21.968C33.8087 21.6266 34.1873 21.152 34.454 20.544C34.7313 19.9253 34.87 19.2106 34.87 18.4C34.87 17.5786 34.7313 16.864 34.454 16.256C34.1873 15.6373 33.8087 15.1626 33.318 14.832C32.8273 14.4906 32.246 14.32 31.574 14.32C30.9127 14.32 30.3313 14.4906 29.83 14.832C29.3287 15.1626 28.9393 15.6373 28.662 16.256C28.3953 16.864 28.262 17.5786 28.262 18.4C28.262 19.2106 28.3953 19.9253 28.662 20.544C28.9393 21.152 29.3287 21.6266 29.83 21.968C30.3313 22.2986 30.9127 22.464 31.574 22.464Z" fill="#FDFCFA"/>
<path d="M20.824 24.256C19.8107 24.256 18.904 24.016 18.104 23.536C17.3147 23.056 16.696 22.3786 16.248 21.504C15.8 20.6186 15.576 19.584 15.576 18.4C15.576 17.2053 15.8 16.1706 16.248 15.296C16.696 14.4106 17.3147 13.728 18.104 13.248C18.904 12.7573 19.8107 12.512 20.824 12.512C21.7627 12.512 22.6053 12.72 23.352 13.136C24.0987 13.552 24.7013 14.1333 25.16 14.88L23.512 15.84C23.2133 15.36 22.8347 14.9866 22.376 14.72C21.928 14.4533 21.4107 14.32 20.824 14.32C20.1627 14.32 19.5813 14.4906 19.08 14.832C18.5787 15.1626 18.1893 15.6373 17.912 16.256C17.6453 16.864 17.512 17.5786 17.512 18.4C17.512 19.2106 17.6453 19.9253 17.912 20.544C18.1893 21.152 18.5787 21.6266 19.08 21.968C19.5813 22.2986 20.1627 22.464 20.824 22.464C21.4107 22.464 21.928 22.3306 22.376 22.064C22.8347 21.7973 23.2133 21.424 23.512 20.944L25.16 21.904C24.7013 22.64 24.0987 23.216 23.352 23.632C22.6053 24.048 21.7627 24.256 20.824 24.256Z" fill="#FDFCFA"/>
</svg>
