<svg width="26" height="30" viewBox="0 0 26 30" fill="none" xmlns="http://www.w3.org/2000/svg">
<path d="M13 0L26 7.5V22.5L13 30L0 22.5V7.5L13 0Z" fill="#43435B"/>
<path d="M9.12713 17.165C8.8169 17.165 8.5467 17.055 8.31653 16.835C8.09637 16.605 7.98629 16.335 7.98629 16.025C7.98629 15.715 8.09637 15.45 8.31653 15.23C8.5467 15 8.8169 14.885 9.12713 14.885C9.43736 14.885 9.70256 15 9.92272 15.23C10.1529 15.45 10.268 15.715 10.268 16.025C10.268 16.335 10.1529 16.605 9.92272 16.835C9.70256 17.055 9.43736 17.165 9.12713 17.165ZM17.6384 17.165C17.3282 17.165 17.063 17.055 16.8428 16.835C16.6227 16.605 16.5126 16.335 16.5126 16.025C16.5126 15.715 16.6227 15.45 16.8428 15.23C17.063 15 17.3282 14.885 17.6384 14.885C17.9587 14.885 18.2289 15 18.449 15.23C18.6692 15.45 18.7793 15.715 18.7793 16.025C18.7793 16.335 18.6692 16.605 18.449 16.835C18.2289 17.055 17.9587 17.165 17.6384 17.165ZM13.3903 17.165C13.0801 17.165 12.8099 17.055 12.5797 16.835C12.3595 16.605 12.2494 16.335 12.2494 16.025C12.2494 15.715 12.3595 15.45 12.5797 15.23C12.8099 15 13.0801 14.885 13.3903 14.885C13.7005 14.885 13.9657 15 14.1859 15.23C14.406 15.45 14.5161 15.715 14.5161 16.025C14.5161 16.335 14.406 16.605 14.1859 16.835C13.9657 17.055 13.7005 17.165 13.3903 17.165Z" fill="#FDFCFA"/>
</svg>
