<svg width="280" height="35" viewBox="0 0 280 35" fill="none" xmlns="http://www.w3.org/2000/svg">
<path fill-rule="evenodd" clip-rule="evenodd" d="M280 35H125.872V34H280V35Z" fill="#43435B"/>
<path d="M0 34.5V0H76.208L128.44 35L0 34.5Z" fill="#43435B"/>
<path d="M82.8709 24V14.512H79.4949V12.8H88.1029V14.512H84.7429V24H82.8709Z" fill="#FDFCFA"/>
<path d="M74.1209 24.256C73.1075 24.256 72.2009 24.016 71.4009 23.536C70.6115 23.056 69.9929 22.3786 69.5449 21.504C69.0969 20.6186 68.8729 19.584 68.8729 18.4C68.8729 17.2053 69.0969 16.1706 69.5449 15.296C69.9929 14.4106 70.6115 13.728 71.4009 13.248C72.2009 12.7573 73.1075 12.512 74.1209 12.512C75.0595 12.512 75.9022 12.72 76.6489 13.136C77.3955 13.552 77.9982 14.1333 78.4569 14.88L76.8089 15.84C76.5102 15.36 76.1315 14.9866 75.6729 14.72C75.2249 14.4533 74.7075 14.32 74.1209 14.32C73.4595 14.32 72.8782 14.4906 72.3769 14.832C71.8755 15.1626 71.4862 15.6373 71.2089 16.256C70.9422 16.864 70.8089 17.5786 70.8089 18.4C70.8089 19.2106 70.9422 19.9253 71.2089 20.544C71.4862 21.152 71.8755 21.6266 72.3769 21.968C72.8782 22.2986 73.4595 22.464 74.1209 22.464C74.7075 22.464 75.2249 22.3306 75.6729 22.064C76.1315 21.7973 76.5102 21.424 76.8089 20.944L78.4569 21.904C77.9982 22.64 77.3955 23.216 76.6489 23.632C75.9022 24.048 75.0595 24.256 74.1209 24.256Z" fill="#FDFCFA"/>
<path d="M63.0144 24.208C61.6171 24.208 60.5504 23.84 59.8144 23.104C59.0784 22.3574 58.7104 21.2427 58.7104 19.76V12.8H60.5824V19.664C60.5824 20.624 60.7957 21.3227 61.2224 21.76C61.6597 22.1867 62.2571 22.4 63.0144 22.4C63.7717 22.4 64.3637 22.1867 64.7904 21.76C65.2171 21.3227 65.4304 20.624 65.4304 19.664V12.8H67.2864V19.76C67.2864 21.2427 66.9237 22.3574 66.1984 23.104C65.4731 23.84 64.4117 24.208 63.0144 24.208Z" fill="#FDFCFA"/>
<path d="M48.1047 24V12.8H51.7047C52.8247 12.8 53.7901 13.008 54.6007 13.424C55.4221 13.84 56.0514 14.464 56.4887 15.296C56.9367 16.128 57.1607 17.1627 57.1607 18.4C57.1607 19.6267 56.9367 20.656 56.4887 21.488C56.0514 22.32 55.4221 22.9494 54.6007 23.376C53.7901 23.792 52.8247 24 51.7047 24H48.1047ZM49.9447 22.288H51.5607C52.7127 22.288 53.6087 21.9574 54.2487 21.296C54.8994 20.624 55.2247 19.6587 55.2247 18.4C55.2247 17.1307 54.8994 16.1654 54.2487 15.504C53.6087 14.8427 52.7127 14.512 51.5607 14.512H49.9447V22.288Z" fill="#FDFCFA"/>
<path d="M41.1677 24.256C40.1544 24.256 39.2477 24.016 38.4477 23.536C37.6584 23.056 37.0397 22.3786 36.5917 21.504C36.1437 20.6186 35.9197 19.584 35.9197 18.4C35.9197 17.2053 36.1437 16.1706 36.5917 15.296C37.0397 14.4106 37.6584 13.728 38.4477 13.248C39.2477 12.7573 40.1544 12.512 41.1677 12.512C42.1811 12.512 43.0771 12.7573 43.8557 13.248C44.6451 13.728 45.2637 14.4106 45.7117 15.296C46.1704 16.1706 46.3997 17.2053 46.3997 18.4C46.3997 19.584 46.1704 20.6186 45.7117 21.504C45.2637 22.3786 44.6451 23.056 43.8557 23.536C43.0771 24.016 42.1811 24.256 41.1677 24.256ZM41.1677 22.464C41.8397 22.464 42.4211 22.2986 42.9117 21.968C43.4024 21.6266 43.7811 21.152 44.0477 20.544C44.3251 19.9253 44.4637 19.2106 44.4637 18.4C44.4637 17.5786 44.3251 16.864 44.0477 16.256C43.7811 15.6373 43.4024 15.1626 42.9117 14.832C42.4211 14.4906 41.8397 14.32 41.1677 14.32C40.5064 14.32 39.9251 14.4906 39.4237 14.832C38.9224 15.1626 38.5331 15.6373 38.2557 16.256C37.9891 16.864 37.8557 17.5786 37.8557 18.4C37.8557 19.2106 37.9891 19.9253 38.2557 20.544C38.5331 21.152 38.9224 21.6266 39.4237 21.968C39.9251 22.2986 40.5064 22.464 41.1677 22.464Z" fill="#FDFCFA"/>
<path d="M26.2298 24V12.8H31.3498C32.3951 12.8 33.2218 13.0454 33.8298 13.536C34.4484 14.0267 34.7578 14.8534 34.7578 16.016C34.7578 16.9974 34.5338 17.7441 34.0858 18.2561C33.6378 18.7574 33.0191 19.0667 32.2298 19.184L34.6298 24H32.4697L30.3098 19.264H28.0698V24H26.2298ZM28.0698 17.536H31.0938C31.6378 17.536 32.0591 17.4187 32.3577 17.184C32.6564 16.9494 32.8058 16.56 32.8058 16.016C32.8058 15.4827 32.6564 15.0987 32.3577 14.864C32.0591 14.6294 31.6378 14.512 31.0938 14.512H28.0698V17.536Z" fill="#FDFCFA"/>
<path d="M16.136 24V12.8H21.256C22.3013 12.8 23.128 13.0454 23.736 13.536C24.3547 14.0267 24.664 14.8534 24.664 16.016C24.664 17.1787 24.3547 18.0107 23.736 18.512C23.128 19.0134 22.3013 19.264 21.256 19.264H17.976V24H16.136ZM17.976 17.536H21C21.544 17.536 21.9653 17.4187 22.264 17.184C22.5627 16.9494 22.712 16.56 22.712 16.016C22.712 15.4827 22.5627 15.0987 22.264 14.864C21.9653 14.6294 21.544 14.512 21 14.512H17.976V17.536Z" fill="#FDFCFA"/>
</svg>
