<svg width="280" height="35" viewBox="0 0 280 35" fill="none" xmlns="http://www.w3.org/2000/svg">
<path fill-rule="evenodd" clip-rule="evenodd" d="M280 35H125.872V34H280V35Z" fill="#43435B"/>
<path d="M0 34.5V0H76.208L128.44 35L0 34.5Z" fill="#43435B"/>
<path d="M74.1209 24V14.512H70.7449V12.8H79.3529V14.512H75.9929V24H74.1209Z" fill="#FDFCFA"/>
<path d="M67.3235 24V12.8H69.1635V24H67.3235Z" fill="#FDFCFA"/>
<path d="M60.905 24.208C59.5077 24.208 58.441 23.84 57.705 23.104C56.969 22.3574 56.601 21.2427 56.601 19.76V12.8H58.473V19.664C58.473 20.624 58.6863 21.3227 59.113 21.76C59.5503 22.1867 60.1477 22.4 60.905 22.4C61.6623 22.4 62.2543 22.1867 62.681 21.76C63.1077 21.3227 63.321 20.624 63.321 19.664V12.8H65.177V19.76C65.177 21.2427 64.8143 22.3574 64.089 23.104C63.3637 23.84 62.3023 24.208 60.905 24.208Z" fill="#FDFCFA"/>
<path d="M46.511 24V12.8H51.631C52.6763 12.8 53.503 13.0454 54.111 13.536C54.7297 14.0267 55.039 14.8534 55.039 16.016C55.039 16.9974 54.815 17.7441 54.367 18.2561C53.919 18.7574 53.3003 19.0667 52.511 19.184L54.911 24H52.751L50.591 19.264H48.351V24H46.511ZM48.351 17.536H51.375C51.919 17.536 52.3403 17.4187 52.639 17.184C52.9377 16.9494 53.087 16.56 53.087 16.016C53.087 15.4827 52.9377 15.0987 52.639 14.864C52.3403 14.6294 51.919 14.512 51.375 14.512H48.351V17.536Z" fill="#FDFCFA"/>
<path d="M40.449 24.256C39.4357 24.256 38.529 24.016 37.729 23.536C36.9397 23.056 36.321 22.3786 35.873 21.504C35.425 20.6186 35.201 19.584 35.201 18.4C35.201 17.2053 35.425 16.1706 35.873 15.296C36.321 14.4106 36.9397 13.728 37.729 13.248C38.529 12.7573 39.4357 12.512 40.449 12.512C41.3877 12.512 42.2303 12.72 42.977 13.136C43.7237 13.552 44.3263 14.1333 44.785 14.88L43.137 15.84C42.8383 15.36 42.4597 14.9866 42.001 14.72C41.553 14.4533 41.0357 14.32 40.449 14.32C39.7877 14.32 39.2063 14.4906 38.705 14.832C38.2037 15.1626 37.8143 15.6373 37.537 16.256C37.2703 16.864 37.137 17.5786 37.137 18.4C37.137 19.2106 37.2703 19.9253 37.537 20.544C37.8143 21.152 38.2037 21.6266 38.705 21.968C39.2063 22.2986 39.7877 22.464 40.449 22.464C41.0357 22.464 41.553 22.3306 42.001 22.064C42.4597 21.7973 42.8383 21.424 43.137 20.944L44.785 21.904C44.3263 22.64 43.7237 23.216 42.977 23.632C42.2303 24.048 41.3877 24.256 40.449 24.256Z" fill="#FDFCFA"/>
<path d="M26.386 24V12.8H33.874V14.512H28.226V17.424H33.378V19.1521H28.226V22.288H34.05V24H26.386Z" fill="#FDFCFA"/>
<path d="M16.136 24V12.8H21.256C22.3013 12.8 23.128 13.0454 23.736 13.536C24.3547 14.0267 24.664 14.8534 24.664 16.016C24.664 16.9974 24.44 17.7441 23.992 18.2561C23.544 18.7574 22.9253 19.0667 22.136 19.184L24.536 24H22.376L20.216 19.264H17.976V24H16.136ZM17.976 17.536H21C21.544 17.536 21.9653 17.4187 22.264 17.184C22.5627 16.9494 22.712 16.56 22.712 16.016C22.712 15.4827 22.5627 15.0987 22.264 14.864C21.9653 14.6294 21.544 14.512 21 14.512H17.976V17.536Z" fill="#FDFCFA"/>
</svg>
