<svg width="29" height="29" viewBox="0 0 29 29" fill="none" xmlns="http://www.w3.org/2000/svg">
<path d="M10.3 15.2H11.7V12.4H13.1C13.4967 12.4 13.8292 12.2658 14.0975 11.9975C14.3658 11.7292 14.5 11.3967 14.5 11V9.6C14.5 9.20333 14.3658 8.87083 14.0975 8.6025C13.8292 8.33417 13.4967 8.2 13.1 8.2H10.3V15.2ZM11.7 11V9.6H13.1V11H11.7ZM15.9 15.2H18.7C19.0967 15.2 19.4292 15.0658 19.6975 14.7975C19.9658 14.5292 20.1 14.1967 20.1 13.8V9.6C20.1 9.20333 19.9658 8.87083 19.6975 8.6025C19.4292 8.33417 19.0967 8.2 18.7 8.2H15.9V15.2ZM17.3 13.8V9.6H18.7V13.8H17.3ZM21.5 15.2H22.9V12.4H24.3V11H22.9V9.6H24.3V8.2H21.5V15.2ZM8.9 22.9C8.13 22.9 7.47083 22.6258 6.9225 22.0775C6.37417 21.5292 6.1 20.87 6.1 20.1V3.3C6.1 2.53 6.37417 1.87083 6.9225 1.3225C7.47083 0.774167 8.13 0.5 8.9 0.5H25.7C26.47 0.5 27.1292 0.774167 27.6775 1.3225C28.2258 1.87083 28.5 2.53 28.5 3.3V20.1C28.5 20.87 28.2258 21.5292 27.6775 22.0775C27.1292 22.6258 26.47 22.9 25.7 22.9H8.9ZM8.9 20.1H25.7V3.3H8.9V20.1ZM3.3 28.5C2.53 28.5 1.87083 28.2258 1.3225 27.6775C0.774167 27.1292 0.5 26.47 0.5 25.7V6.1H3.3V25.7H22.9V28.5H3.3Z" fill="#FDFCFA"/>
</svg>
