<svg width="280" height="35" viewBox="0 0 280 35" fill="none" xmlns="http://www.w3.org/2000/svg">
<path fill-rule="evenodd" clip-rule="evenodd" d="M280 35H125.872V34H280V35Z" fill="#43435B"/>
<path d="M0 34.5V0H76.208L128.44 35L0 34.5Z" fill="#43435B"/>
<path d="M70.761 24V12.8H78.249V14.512H72.601V17.424H77.753V19.1521H72.601V22.288H78.425V24H70.761Z" fill="#FDFCFA"/>
<path d="M64.699 24.256C63.6857 24.256 62.779 24.016 61.979 23.536C61.1897 23.056 60.571 22.3786 60.123 21.504C59.675 20.6186 59.451 19.584 59.451 18.4C59.451 17.2053 59.675 16.1706 60.123 15.296C60.571 14.4106 61.1897 13.728 61.979 13.248C62.779 12.7573 63.6857 12.512 64.699 12.512C65.6377 12.512 66.4803 12.72 67.227 13.136C67.9737 13.552 68.5763 14.1333 69.035 14.88L67.387 15.84C67.0883 15.36 66.7097 14.9866 66.251 14.72C65.803 14.4533 65.2857 14.32 64.699 14.32C64.0377 14.32 63.4563 14.4906 62.955 14.832C62.4537 15.1626 62.0643 15.6373 61.787 16.256C61.5203 16.864 61.387 17.5786 61.387 18.4C61.387 19.2106 61.5203 19.9253 61.787 20.544C62.0643 21.152 62.4537 21.6266 62.955 21.968C63.4563 22.2986 64.0377 22.464 64.699 22.464C65.2857 22.464 65.803 22.3306 66.251 22.064C66.7097 21.7973 67.0883 21.424 67.387 20.944L69.035 21.904C68.5763 22.64 67.9737 23.216 67.227 23.632C66.4803 24.048 65.6377 24.256 64.699 24.256Z" fill="#FDFCFA"/>
<path d="M55.9016 24V12.8H57.7416V24H55.9016Z" fill="#FDFCFA"/>
<path d="M48.7534 24L44.7694 12.8H46.7534L49.6814 21.472L52.6094 12.8H54.5934L50.6094 24H48.7534Z" fill="#FDFCFA"/>
<path d="M35.4954 24V12.8H40.6154C41.6607 12.8 42.4874 13.0454 43.0954 13.536C43.714 14.0267 44.0234 14.8534 44.0234 16.016C44.0234 16.9974 43.7994 17.7441 43.3514 18.2561C42.9034 18.7574 42.2847 19.0667 41.4954 19.184L43.8954 24H41.7354L39.5754 19.264H37.3354V24H35.4954ZM37.3354 17.536H40.3594C40.9034 17.536 41.3247 17.4187 41.6234 17.184C41.922 16.9494 42.0714 16.56 42.0714 16.016C42.0714 15.4827 41.922 15.0987 41.6234 14.864C41.3247 14.6294 40.9034 14.512 40.3594 14.512H37.3354V17.536Z" fill="#FDFCFA"/>
<path d="M26.1204 24V12.8H33.6084V14.512H27.9604V17.424H33.1124V19.1521H27.9604V22.288H33.7844V24H26.1204Z" fill="#FDFCFA"/>
<path d="M20.184 24.224C19.2453 24.224 18.3813 24.0266 17.592 23.632C16.8133 23.2373 16.1893 22.5706 15.72 21.632L17.272 20.752C17.592 21.2853 17.9813 21.7066 18.44 22.016C18.8987 22.3146 19.5013 22.464 20.248 22.464C20.9947 22.464 21.5173 22.3306 21.816 22.064C22.1253 21.7866 22.28 21.4133 22.28 20.944C22.28 20.6453 22.2107 20.3893 22.072 20.176C21.944 19.9626 21.6667 19.7653 21.24 19.584C20.824 19.392 20.1787 19.2 19.304 19.008C18.2693 18.7626 17.5013 18.3733 17 17.84C16.5093 17.3066 16.264 16.6293 16.264 15.808C16.264 15.1573 16.4187 14.5866 16.728 14.096C17.048 13.5946 17.4907 13.2053 18.056 12.928C18.632 12.6506 19.304 12.512 20.072 12.512C21.0853 12.512 21.9387 12.736 22.632 13.184C23.3253 13.6213 23.8533 14.1386 24.216 14.736L22.76 15.856C22.5787 15.6 22.3653 15.3546 22.12 15.12C21.8747 14.8746 21.5867 14.6773 21.256 14.528C20.9253 14.368 20.5253 14.288 20.056 14.288C19.5013 14.288 19.048 14.4106 18.696 14.656C18.3547 14.8906 18.184 15.248 18.184 15.728C18.184 15.9413 18.232 16.1493 18.328 16.352C18.4347 16.544 18.6587 16.7306 19 16.912C19.352 17.0933 19.8907 17.2693 20.616 17.44C21.896 17.728 22.8187 18.16 23.384 18.736C23.9493 19.312 24.232 20.0373 24.232 20.912C24.232 21.9786 23.8587 22.8 23.112 23.376C22.376 23.9413 21.4 24.224 20.184 24.224Z" fill="#FDFCFA"/>
</svg>
